<?xml version="1.0" encoding="UTF-8"?>
<svg xmlns="http://www.w3.org/2000/svg" width="760" height="330" viewBox="0 0 760 330">

  <defs>
    <pattern id="diag" patternUnits="userSpaceOnUse" width="7" height="7" patternTransform="rotate(45)">
      <rect width="7" height="7" fill="transparent"/>
      <line x1="0" y1="0" x2="0" y2="7" stroke="#9a4e17" stroke-width="1.15" opacity="0.55"/>
    </pattern>
    <pattern id="cross" patternUnits="userSpaceOnUse" width="7" height="7">
      <rect width="7" height="7" fill="transparent"/>
      <path d="M0,0 L7,7 M7,0 L0,7" stroke="#7f360f" stroke-width="0.9" opacity="0.55"/>
    </pattern>
  </defs>
<rect width="100%" height="100%" fill="white"/>
<text x="380" y="24" text-anchor="middle" font-family="Times New Roman, DejaVu Serif, serif" font-size="20" font-weight="700">7B-Instruct Multi-Hop Results</text>
<rect x="75" y="38" width="21" height="11" rx="1" fill="#F7D8BB" stroke="#5A2A12" stroke-width="0.7"/>
<text x="102" y="48" font-family="Times New Roman, DejaVu Serif, serif" font-size="13">Search-o1</text>
<rect x="187.9" y="38" width="21" height="11" rx="1" fill="#F0A35A" stroke="#5A2A12" stroke-width="0.7"/>
<rect x="187.9" y="38" width="21" height="11" rx="1" fill="url(#diag)"/>
<text x="214.9" y="48" font-family="Times New Roman, DejaVu Serif, serif" font-size="13">ZeroSearch-Base</text>
<rect x="343.4" y="38" width="21" height="11" rx="1" fill="#D77228" stroke="#5A2A12" stroke-width="0.7"/>
<rect x="343.4" y="38" width="21" height="11" rx="1" fill="url(#cross)"/>
<text x="370.4" y="48" font-family="Times New Roman, DejaVu Serif, serif" font-size="13">SearchR1-Instruct</text>
<rect x="513.0999999999999" y="38" width="21" height="11" rx="1" fill="#8F3A12" stroke="#5A2A12" stroke-width="0.7"/>
<text x="540.0999999999999" y="48" font-family="Times New Roman, DejaVu Serif, serif" font-size="13">SearchSkill-SFT</text>
<line x1="58" x2="742" y1="282" y2="282" stroke="#cfcfcf" stroke-width="0.8" stroke-dasharray="4 4" opacity="0.9"/>
<text x="48" y="286" text-anchor="end" font-family="Times New Roman, DejaVu Serif, serif" font-size="12">0</text>
<line x1="58" x2="742" y1="208.42857142857144" y2="208.42857142857144" stroke="#cfcfcf" stroke-width="0.8" stroke-dasharray="4 4" opacity="0.9"/>
<text x="48" y="212.42857142857144" text-anchor="end" font-family="Times New Roman, DejaVu Serif, serif" font-size="12">20</text>
<line x1="58" x2="742" y1="134.85714285714286" y2="134.85714285714286" stroke="#cfcfcf" stroke-width="0.8" stroke-dasharray="4 4" opacity="0.9"/>
<text x="48" y="138.85714285714286" text-anchor="end" font-family="Times New Roman, DejaVu Serif, serif" font-size="12">40</text>
<line x1="58" x2="58" y1="76" y2="282" stroke="#333" stroke-width="1"/>
<line x1="58" x2="742" y1="282" y2="282" stroke="#333" stroke-width="1"/>
<text transform="translate(17 179) rotate(-90)" text-anchor="middle" font-family="Times New Roman, DejaVu Serif, serif" font-size="15" font-weight="700">EM (%)</text>
<text x="126.4" y="313" text-anchor="middle" font-family="Times New Roman, DejaVu Serif, serif" font-size="14">HotpotQA</text>
<text x="263.20000000000005" y="313" text-anchor="middle" font-family="Times New Roman, DejaVu Serif, serif" font-size="14">2Wiki</text>
<text x="400" y="313" text-anchor="middle" font-family="Times New Roman, DejaVu Serif, serif" font-size="14">MuSiQue</text>
<text x="536.8000000000001" y="313" text-anchor="middle" font-family="Times New Roman, DejaVu Serif, serif" font-size="14">Bamb.</text>
<text x="673.6" y="313" text-anchor="middle" font-family="Times New Roman, DejaVu Serif, serif" font-size="14">Avg.</text>
<rect x="69.65" y="166.13" width="25" height="115.88" fill="#F7D8BB" stroke="#5A2A12" stroke-width="0.8"/>
<text x="82.15" y="162.13" text-anchor="middle" font-family="Times New Roman, DejaVu Serif, serif" font-size="12"  fill="#B87642">31.5</text>
<rect x="206.45" y="180.84" width="25" height="101.16" fill="#F7D8BB" stroke="#5A2A12" stroke-width="0.8"/>
<text x="218.95" y="176.84" text-anchor="middle" font-family="Times New Roman, DejaVu Serif, serif" font-size="12"  fill="#B87642">27.5</text>
<rect x="343.25" y="241.54" width="25" height="40.46" fill="#F7D8BB" stroke="#5A2A12" stroke-width="0.8"/>
<text x="355.75" y="237.54" text-anchor="middle" font-family="Times New Roman, DejaVu Serif, serif" font-size="12"  fill="#B87642">11.0</text>
<rect x="480.05" y="146.63" width="25" height="135.37" fill="#F7D8BB" stroke="#5A2A12" stroke-width="0.8"/>
<text x="492.55" y="142.63" text-anchor="middle" font-family="Times New Roman, DejaVu Serif, serif" font-size="12"  fill="#B87642">36.8</text>
<rect x="616.85" y="183.78" width="25" height="98.22" fill="#F7D8BB" stroke="#5A2A12" stroke-width="0.8"/>
<text x="629.35" y="179.78" text-anchor="middle" font-family="Times New Roman, DejaVu Serif, serif" font-size="12"  fill="#B87642">26.7</text>
<rect x="99.15" y="175.32" width="25" height="106.68" fill="#F0A35A" stroke="#5A2A12" stroke-width="0.8"/>
<rect x="99.15" y="175.32" width="25" height="106.68" fill="url(#diag)"/>
<text x="111.65" y="171.32" text-anchor="middle" font-family="Times New Roman, DejaVu Serif, serif" font-size="12"  fill="#D16B21">29.0</text>
<rect x="235.95" y="167.96" width="25" height="114.04" fill="#F0A35A" stroke="#5A2A12" stroke-width="0.8"/>
<rect x="235.95" y="167.96" width="25" height="114.04" fill="url(#diag)"/>
<text x="248.45" y="163.96" text-anchor="middle" font-family="Times New Roman, DejaVu Serif, serif" font-size="12"  fill="#D16B21">31.0</text>
<rect x="372.75" y="254.41" width="25" height="27.59" fill="#F0A35A" stroke="#5A2A12" stroke-width="0.8"/>
<rect x="372.75" y="254.41" width="25" height="27.59" fill="url(#diag)"/>
<text x="385.25" y="250.41" text-anchor="middle" font-family="Times New Roman, DejaVu Serif, serif" font-size="12"  fill="#D16B21">7.5</text>
<rect x="509.55" y="199.60" width="25" height="82.40" fill="#F0A35A" stroke="#5A2A12" stroke-width="0.8"/>
<rect x="509.55" y="199.60" width="25" height="82.40" fill="url(#diag)"/>
<text x="522.05" y="195.60" text-anchor="middle" font-family="Times New Roman, DejaVu Serif, serif" font-size="12"  fill="#D16B21">22.4</text>
<rect x="646.35" y="199.32" width="25" height="82.68" fill="#F0A35A" stroke="#5A2A12" stroke-width="0.8"/>
<rect x="646.35" y="199.32" width="25" height="82.68" fill="url(#diag)"/>
<text x="658.85" y="195.32" text-anchor="middle" font-family="Times New Roman, DejaVu Serif, serif" font-size="12"  fill="#D16B21">22.5</text>
<rect x="128.65" y="134.86" width="25" height="147.14" fill="#D77228" stroke="#5A2A12" stroke-width="0.8"/>
<rect x="128.65" y="134.86" width="25" height="147.14" fill="url(#cross)"/>
<text x="141.15" y="130.86" text-anchor="middle" font-family="Times New Roman, DejaVu Serif, serif" font-size="12"  fill="#B95619">40.0</text>
<rect x="265.45" y="144.05" width="25" height="137.95" fill="#D77228" stroke="#5A2A12" stroke-width="0.8"/>
<rect x="265.45" y="144.05" width="25" height="137.95" fill="url(#cross)"/>
<text x="277.95" y="140.05" text-anchor="middle" font-family="Times New Roman, DejaVu Serif, serif" font-size="12"  fill="#B95619">37.5</text>
<rect x="402.25" y="223.14" width="25" height="58.86" fill="#D77228" stroke="#5A2A12" stroke-width="0.8"/>
<rect x="402.25" y="223.14" width="25" height="58.86" fill="url(#cross)"/>
<text x="414.75" y="219.14" text-anchor="middle" font-family="Times New Roman, DejaVu Serif, serif" font-size="12"  fill="#B95619">16.0</text>
<rect x="539.05" y="149.57" width="25" height="132.43" fill="#D77228" stroke="#5A2A12" stroke-width="0.8"/>
<rect x="539.05" y="149.57" width="25" height="132.43" fill="url(#cross)"/>
<text x="551.55" y="145.57" text-anchor="middle" font-family="Times New Roman, DejaVu Serif, serif" font-size="12"  fill="#B95619">36.0</text>
<rect x="675.85" y="162.91" width="25" height="119.09" fill="#D77228" stroke="#5A2A12" stroke-width="0.8"/>
<rect x="675.85" y="162.91" width="25" height="119.09" fill="url(#cross)"/>
<text x="688.35" y="158.91" text-anchor="middle" font-family="Times New Roman, DejaVu Serif, serif" font-size="12"  fill="#B95619">32.4</text>
<rect x="158.15" y="123.82" width="25" height="158.18" fill="#8F3A12" stroke="#5A2A12" stroke-width="0.8"/>
<text x="170.65" y="119.82" text-anchor="middle" font-family="Times New Roman, DejaVu Serif, serif" font-size="12" font-weight="700" fill="#8F3A12">43.0</text>
<rect x="294.95" y="118.30" width="25" height="163.70" fill="#8F3A12" stroke="#5A2A12" stroke-width="0.8"/>
<text x="307.45" y="114.30" text-anchor="middle" font-family="Times New Roman, DejaVu Serif, serif" font-size="12" font-weight="700" fill="#8F3A12">44.5</text>
<rect x="431.75" y="224.98" width="25" height="57.02" fill="#8F3A12" stroke="#5A2A12" stroke-width="0.8"/>
<text x="444.25" y="220.98" text-anchor="middle" font-family="Times New Roman, DejaVu Serif, serif" font-size="12" font-weight="700" fill="#8F3A12">15.5</text>
<rect x="568.55" y="140.74" width="25" height="141.26" fill="#8F3A12" stroke="#5A2A12" stroke-width="0.8"/>
<text x="581.05" y="136.74" text-anchor="middle" font-family="Times New Roman, DejaVu Serif, serif" font-size="12" font-weight="700" fill="#8F3A12">38.4</text>
<rect x="705.35" y="151.96" width="25" height="130.04" fill="#8F3A12" stroke="#5A2A12" stroke-width="0.8"/>
<text x="717.85" y="147.96" text-anchor="middle" font-family="Times New Roman, DejaVu Serif, serif" font-size="12" font-weight="700" fill="#8F3A12">35.4</text>
</svg>
