<?xml version="1.0" encoding="UTF-8"?>
<svg xmlns="http://www.w3.org/2000/svg" width="760" height="330" viewBox="0 0 760 330">

  <defs>
    <pattern id="diag" patternUnits="userSpaceOnUse" width="7" height="7" patternTransform="rotate(45)">
      <rect width="7" height="7" fill="transparent"/>
      <line x1="0" y1="0" x2="0" y2="7" stroke="#9a4e17" stroke-width="1.15" opacity="0.55"/>
    </pattern>
    <pattern id="cross" patternUnits="userSpaceOnUse" width="7" height="7">
      <rect width="7" height="7" fill="transparent"/>
      <path d="M0,0 L7,7 M7,0 L0,7" stroke="#7f360f" stroke-width="0.9" opacity="0.55"/>
    </pattern>
  </defs>
<rect width="100%" height="100%" fill="white"/>
<text x="380" y="24" text-anchor="middle" font-family="Times New Roman, DejaVu Serif, serif" font-size="20" font-weight="700">3B-Instruct Multi-Hop Results</text>
<rect x="54" y="38" width="21" height="11" rx="1" fill="#F7D8BB" stroke="#5A2A12" stroke-width="0.7"/>
<text x="81" y="48" font-family="Times New Roman, DejaVu Serif, serif" font-size="13">Search-o1</text>
<rect x="166.9" y="38" width="21" height="11" rx="1" fill="#F0A35A" stroke="#5A2A12" stroke-width="0.7"/>
<rect x="166.9" y="38" width="21" height="11" rx="1" fill="url(#diag)"/>
<text x="193.9" y="48" font-family="Times New Roman, DejaVu Serif, serif" font-size="13">ZeroSearch-Base (GRPO)</text>
<rect x="337.4" y="38" width="21" height="11" rx="1" fill="#D77228" stroke="#5A2A12" stroke-width="0.7"/>
<rect x="337.4" y="38" width="21" height="11" rx="1" fill="url(#cross)"/>
<text x="364.4" y="48" font-family="Times New Roman, DejaVu Serif, serif" font-size="13">SearchR1-Instruct (GRPO)</text>
<rect x="531.1" y="38" width="21" height="11" rx="1" fill="#8F3A12" stroke="#5A2A12" stroke-width="0.7"/>
<text x="558.1" y="48" font-family="Times New Roman, DejaVu Serif, serif" font-size="13">SearchSkill-SFT</text>
<line x1="58" x2="742" y1="282" y2="282" stroke="#cfcfcf" stroke-width="0.8" stroke-dasharray="4 4" opacity="0.9"/>
<text x="48" y="286" text-anchor="end" font-family="Times New Roman, DejaVu Serif, serif" font-size="12">0</text>
<line x1="58" x2="742" y1="208.42857142857144" y2="208.42857142857144" stroke="#cfcfcf" stroke-width="0.8" stroke-dasharray="4 4" opacity="0.9"/>
<text x="48" y="212.42857142857144" text-anchor="end" font-family="Times New Roman, DejaVu Serif, serif" font-size="12">20</text>
<line x1="58" x2="742" y1="134.85714285714286" y2="134.85714285714286" stroke="#cfcfcf" stroke-width="0.8" stroke-dasharray="4 4" opacity="0.9"/>
<text x="48" y="138.85714285714286" text-anchor="end" font-family="Times New Roman, DejaVu Serif, serif" font-size="12">40</text>
<line x1="58" x2="58" y1="76" y2="282" stroke="#333" stroke-width="1"/>
<line x1="58" x2="742" y1="282" y2="282" stroke="#333" stroke-width="1"/>
<text transform="translate(17 179) rotate(-90)" text-anchor="middle" font-family="Times New Roman, DejaVu Serif, serif" font-size="15" font-weight="700">EM (%)</text>
<text x="126.4" y="313" text-anchor="middle" font-family="Times New Roman, DejaVu Serif, serif" font-size="14">HotpotQA</text>
<text x="263.20000000000005" y="313" text-anchor="middle" font-family="Times New Roman, DejaVu Serif, serif" font-size="14">2Wiki</text>
<text x="400" y="313" text-anchor="middle" font-family="Times New Roman, DejaVu Serif, serif" font-size="14">MuSiQue</text>
<text x="536.8000000000001" y="313" text-anchor="middle" font-family="Times New Roman, DejaVu Serif, serif" font-size="14">Bamb.</text>
<text x="673.6" y="313" text-anchor="middle" font-family="Times New Roman, DejaVu Serif, serif" font-size="14">Avg.</text>
<rect x="69.65" y="191.88" width="25" height="90.13" fill="#F7D8BB" stroke="#5A2A12" stroke-width="0.8"/>
<text x="82.15" y="187.88" text-anchor="middle" font-family="Times New Roman, DejaVu Serif, serif" font-size="12"  fill="#B87642">24.5</text>
<rect x="206.45" y="193.71" width="25" height="88.29" fill="#F7D8BB" stroke="#5A2A12" stroke-width="0.8"/>
<text x="218.95" y="189.71" text-anchor="middle" font-family="Times New Roman, DejaVu Serif, serif" font-size="12"  fill="#B87642">24.0</text>
<rect x="343.25" y="259.93" width="25" height="22.07" fill="#F7D8BB" stroke="#5A2A12" stroke-width="0.8"/>
<text x="355.75" y="255.93" text-anchor="middle" font-family="Times New Roman, DejaVu Serif, serif" font-size="12"  fill="#B87642">6.0</text>
<rect x="480.05" y="205.49" width="25" height="76.51" fill="#F7D8BB" stroke="#5A2A12" stroke-width="0.8"/>
<text x="492.55" y="201.49" text-anchor="middle" font-family="Times New Roman, DejaVu Serif, serif" font-size="12"  fill="#B87642">20.8</text>
<rect x="616.85" y="212.75" width="25" height="69.25" fill="#F7D8BB" stroke="#5A2A12" stroke-width="0.8"/>
<text x="629.35" y="208.75" text-anchor="middle" font-family="Times New Roman, DejaVu Serif, serif" font-size="12"  fill="#B87642">18.8</text>
<rect x="99.15" y="186.36" width="25" height="95.64" fill="#F0A35A" stroke="#5A2A12" stroke-width="0.8"/>
<rect x="99.15" y="186.36" width="25" height="95.64" fill="url(#diag)"/>
<text x="111.65" y="182.36" text-anchor="middle" font-family="Times New Roman, DejaVu Serif, serif" font-size="12"  fill="#D16B21">26.0</text>
<rect x="235.95" y="171.64" width="25" height="110.36" fill="#F0A35A" stroke="#5A2A12" stroke-width="0.8"/>
<rect x="235.95" y="171.64" width="25" height="110.36" fill="url(#diag)"/>
<text x="248.45" y="167.64" text-anchor="middle" font-family="Times New Roman, DejaVu Serif, serif" font-size="12"  fill="#D16B21">30.0</text>
<rect x="372.75" y="258.09" width="25" height="23.91" fill="#F0A35A" stroke="#5A2A12" stroke-width="0.8"/>
<rect x="372.75" y="258.09" width="25" height="23.91" fill="url(#diag)"/>
<text x="385.25" y="254.09" text-anchor="middle" font-family="Times New Roman, DejaVu Serif, serif" font-size="12"  fill="#D16B21">6.5</text>
<rect x="509.55" y="223.14" width="25" height="58.86" fill="#F0A35A" stroke="#5A2A12" stroke-width="0.8"/>
<rect x="509.55" y="223.14" width="25" height="58.86" fill="url(#diag)"/>
<text x="522.05" y="219.14" text-anchor="middle" font-family="Times New Roman, DejaVu Serif, serif" font-size="12"  fill="#D16B21">16.0</text>
<rect x="646.35" y="209.81" width="25" height="72.19" fill="#F0A35A" stroke="#5A2A12" stroke-width="0.8"/>
<rect x="646.35" y="209.81" width="25" height="72.19" fill="url(#diag)"/>
<text x="658.85" y="205.81" text-anchor="middle" font-family="Times New Roman, DejaVu Serif, serif" font-size="12"  fill="#D16B21">19.6</text>
<rect x="128.65" y="175.32" width="25" height="106.68" fill="#D77228" stroke="#5A2A12" stroke-width="0.8"/>
<rect x="128.65" y="175.32" width="25" height="106.68" fill="url(#cross)"/>
<text x="141.15" y="171.32" text-anchor="middle" font-family="Times New Roman, DejaVu Serif, serif" font-size="12"  fill="#B95619">29.0</text>
<rect x="265.45" y="167.96" width="25" height="114.04" fill="#D77228" stroke="#5A2A12" stroke-width="0.8"/>
<rect x="265.45" y="167.96" width="25" height="114.04" fill="url(#cross)"/>
<text x="277.95" y="163.96" text-anchor="middle" font-family="Times New Roman, DejaVu Serif, serif" font-size="12"  fill="#B95619">31.0</text>
<rect x="402.25" y="243.38" width="25" height="38.63" fill="#D77228" stroke="#5A2A12" stroke-width="0.8"/>
<rect x="402.25" y="243.38" width="25" height="38.63" fill="url(#cross)"/>
<text x="414.75" y="239.38" text-anchor="middle" font-family="Times New Roman, DejaVu Serif, serif" font-size="12"  fill="#B95619">10.5</text>
<rect x="539.05" y="179.00" width="25" height="103.00" fill="#D77228" stroke="#5A2A12" stroke-width="0.8"/>
<rect x="539.05" y="179.00" width="25" height="103.00" fill="url(#cross)"/>
<text x="551.55" y="175.00" text-anchor="middle" font-family="Times New Roman, DejaVu Serif, serif" font-size="12"  fill="#B95619">28.0</text>
<rect x="675.85" y="191.42" width="25" height="90.58" fill="#D77228" stroke="#5A2A12" stroke-width="0.8"/>
<rect x="675.85" y="191.42" width="25" height="90.58" fill="url(#cross)"/>
<text x="688.35" y="187.42" text-anchor="middle" font-family="Times New Roman, DejaVu Serif, serif" font-size="12"  fill="#B95619">24.6</text>
<rect x="158.15" y="151.41" width="25" height="130.59" fill="#8F3A12" stroke="#5A2A12" stroke-width="0.8"/>
<text x="170.65" y="147.41" text-anchor="middle" font-family="Times New Roman, DejaVu Serif, serif" font-size="12" font-weight="700" fill="#8F3A12">35.5</text>
<rect x="294.95" y="129.34" width="25" height="152.66" fill="#8F3A12" stroke="#5A2A12" stroke-width="0.8"/>
<text x="307.45" y="125.34" text-anchor="middle" font-family="Times New Roman, DejaVu Serif, serif" font-size="12" font-weight="700" fill="#8F3A12">41.5</text>
<rect x="431.75" y="223.14" width="25" height="58.86" fill="#8F3A12" stroke="#5A2A12" stroke-width="0.8"/>
<text x="444.25" y="219.14" text-anchor="middle" font-family="Times New Roman, DejaVu Serif, serif" font-size="12" font-weight="700" fill="#8F3A12">16.0</text>
<rect x="568.55" y="181.94" width="25" height="100.06" fill="#8F3A12" stroke="#5A2A12" stroke-width="0.8"/>
<text x="581.05" y="177.94" text-anchor="middle" font-family="Times New Roman, DejaVu Serif, serif" font-size="12" font-weight="700" fill="#8F3A12">27.2</text>
<rect x="705.35" y="171.46" width="25" height="110.54" fill="#8F3A12" stroke="#5A2A12" stroke-width="0.8"/>
<text x="717.85" y="167.46" text-anchor="middle" font-family="Times New Roman, DejaVu Serif, serif" font-size="12" font-weight="700" fill="#8F3A12">30.1</text>
</svg>
